<?xml version="1.0" encoding="UTF-8" standalone="no"?>
<svg
   width="103"
   height="210"
   viewBox="0 0 103 210"
   fill="none"
   version="1.1"
   id="svg2"
   sodipodi:docname="company-icon.svg"
   inkscape:version="1.4 (86a8ad7, 2024-10-11)"
   xmlns:inkscape="http://www.inkscape.org/namespaces/inkscape"
   xmlns:sodipodi="http://sodipodi.sourceforge.net/DTD/sodipodi-0.dtd"
   xmlns="http://www.w3.org/2000/svg"
   xmlns:svg="http://www.w3.org/2000/svg">
  <defs
     id="defs2" />
  <sodipodi:namedview
     id="namedview2"
     pagecolor="#ffffff"
     bordercolor="#000000"
     borderopacity="0.25"
     inkscape:showpageshadow="2"
     inkscape:pageopacity="0.0"
     inkscape:pagecheckerboard="true"
     inkscape:deskcolor="#d1d1d1"
     inkscape:zoom="8.1428571"
     inkscape:cx="60.789474"
     inkscape:cy="88.114035"
     inkscape:window-width="1920"
     inkscape:window-height="1057"
     inkscape:window-x="1912"
     inkscape:window-y="-8"
     inkscape:window-maximized="1"
     inkscape:current-layer="svg2" />
  <path
     id="rect3"
     style="fill:#000000;stroke-width:0.980161"
     d="M 79.157391 1.7764977 A 18.666666 10.807017 0 0 0 73.716755 9.173353 L 73.689622 9.1732316 L 73.689505 9.4191237 L 73.688636 68.636368 L 73.697355 68.635845 A 18.666666 10.807017 2.182582e-15 0 1 92.340045 58.023586 A 18.666666 10.807017 2.182582e-15 0 1 110.99923 68.635213 L 111.022 68.635596 L 111.02287 9.4183518 L 111.02299 9.1724597 L 111.01427 9.172983 A 18.666666 10.807017 0 0 0 92.354581 -1.3887364 A 18.666666 10.807017 0 0 0 79.157391 1.7764977 z "
     transform="rotate(30)" />
  <path
     id="path3-0-9"
     style="fill:#000000;stroke:none;stroke-width:0.855;stroke-opacity:1"
     d="M 81.098672 62.619365 A 15.96 9.2399998 0 0 0 76.422635 69.153043 A 15.96 9.2399998 0 0 0 83.111105 76.655781 C 83.129955 76.605752 83.162547 76.543837 83.174366 76.499728 C 83.690322 74.574152 81.140467 64.210011 82.866891 63.21326 C 84.593315 62.216508 92.293997 69.606818 94.219573 70.122775 C 96.145149 70.638731 106.50929 68.088876 107.50604 69.8153 C 107.95359 70.590472 106.69083 72.577873 105.13815 74.698373 A 15.96 9.2399998 0 0 0 108.34397 69.153355 A 15.96 9.2399998 0 0 0 92.384311 59.912757 A 15.96 9.2399998 0 0 0 81.098672 62.619365 z "
     transform="rotate(30)" />
  <path
     sodipodi:type="star"
     style="fill:#ffffff;stroke:#000000;stroke-opacity:1;fill-opacity:0"
     id="path2-8"
     inkscape:flatsided="false"
     sodipodi:sides="4"
     sodipodi:cx="41.017544"
     sodipodi:cy="30.947369"
     sodipodi:r1="18.03717"
     sodipodi:r2="9.0185852"
     sodipodi:arg1="1.5707963"
     sodipodi:arg2="2.3561945"
     inkscape:rounded="0.15"
     inkscape:randomized="0"
     d="m 41.017544,48.984539 c -1.993503,0 -4.967484,-10.250448 -6.377103,-11.660068 -1.409619,-1.409619 -11.660068,-4.383599 -11.660068,-6.377102 0,-1.993503 10.250449,-4.967484 11.660068,-6.377103 1.409619,-1.40962 4.383599,-11.660068 6.377102,-11.660068 1.993503,0 4.967484,10.250449 6.377104,11.660068 1.409619,1.409619 11.660067,4.383599 11.660067,6.377102 0,1.993503 -10.250448,4.967484 -11.660068,6.377103 -1.409619,1.40962 -4.383599,11.660068 -6.377102,11.660068 z"
     transform="translate(-1.0882368,83.634588)" />
  <path
     style="fill:none;fill-opacity:1;stroke:#ffffff;stroke-width:0.173675;stroke-opacity:1;opacity:0"
     d="m 32.169999,137.49342 c -0.688919,-1.04103 -1.559246,-2.8477 -2.820703,-5.85537 -1.667706,-3.97629 -2.061494,-4.6642 -3.016171,-5.26893 -0.441567,-0.2797 -2.483158,-1.22628 -4.536869,-2.1035 -2.053711,-0.87722 -4.007558,-1.75523 -4.341883,-1.95114 -1.268547,-0.74335 -1.910429,-1.23095 -1.910429,-1.45122 0,-0.56679 2.133476,-1.71241 7.096888,-3.81084 1.754057,-0.74158 3.51252,-1.59427 3.907696,-1.89488 0.80238,-0.61036 1.328621,-1.55773 2.635151,-4.74393 1.273814,-3.10642 2.600392,-5.79331 3.193848,-6.46891 l 0.533952,-0.60787 0.508436,0.58623 c 0.731218,0.84308 1.339614,2.06109 3.13137,6.26897 0.873323,2.05097 1.781977,3.98353 2.019231,4.29459 0.584771,0.76667 1.391286,1.21052 4.846672,2.66724 4.718988,1.98944 6.861826,3.14993 6.861826,3.71613 0,0.46303 -2.065398,1.59059 -6.107549,3.33427 -2.260654,0.97519 -4.421155,1.9788 -4.801111,2.23025 -0.827544,0.54764 -1.299632,1.39568 -2.896693,5.20354 -1.869073,4.4564 -2.99677,6.52069 -3.562182,6.52069 -0.165657,0 -0.499322,-0.29939 -0.74148,-0.66532 z"
     id="path12" />
  <path
     style="opacity:0;fill:none;fill-opacity:1;stroke:#ffffff;stroke-width:0.122807;stroke-opacity:1"
     d="m 32.62706,138.09044 c -0.732254,-0.6822 -1.413559,-1.9942 -3.146658,-6.05957 -1.601734,-3.75723 -2.155268,-4.85324 -2.686812,-5.31994 -0.516774,-0.45373 -1.243783,-0.803 -5.070071,-2.43574 -4.069141,-1.73636 -5.378032,-2.41632 -6.059574,-3.14786 -0.313012,-0.33598 -0.176367,-0.54258 0.780533,-1.1801 1.022998,-0.68156 1.996144,-1.14947 5.292364,-2.54471 3.41997,-1.44762 4.677581,-2.05782 5.139085,-2.49351 0.463273,-0.43737 1.15015,-1.82389 2.596708,-5.2417 1.66554,-3.93519 2.421492,-5.39071 3.154425,-6.07354 0.335979,-0.31301 0.542574,-0.17637 1.180097,0.78053 0.681558,1.023 1.149472,1.99615 2.54471,5.29237 1.447617,3.41997 2.057817,4.67758 2.493512,5.13908 0.437363,0.46327 1.823889,1.15015 5.241697,2.59671 3.935195,1.66554 5.39071,2.42149 6.07354,3.15442 0.313013,0.33598 0.176368,0.54258 -0.780533,1.1801 -1.022997,0.68156 -1.996144,1.14947 -5.292364,2.54471 -3.510519,1.48595 -4.682754,2.0599 -5.172827,2.53273 -0.474286,0.45759 -1.038079,1.60263 -2.566968,5.21339 -1.391772,3.28693 -1.859906,4.26015 -2.540767,5.2821 -0.637523,0.9569 -0.844118,1.09354 -1.180097,0.78053 z"
     id="path13" />
  <path
     style="opacity:0;fill:none;fill-opacity:1;stroke:#ffffff;stroke-width:0.122807;stroke-opacity:1"
     d="m 32.62706,138.09044 c -0.732254,-0.6822 -1.413559,-1.9942 -3.146658,-6.05957 -1.601734,-3.75723 -2.155268,-4.85324 -2.686812,-5.31994 -0.516774,-0.45373 -1.243783,-0.803 -5.070071,-2.43574 -4.069141,-1.73636 -5.378032,-2.41632 -6.059574,-3.14786 -0.313012,-0.33598 -0.176367,-0.54258 0.780533,-1.1801 1.022998,-0.68156 1.996144,-1.14947 5.292364,-2.54471 3.41997,-1.44762 4.677581,-2.05782 5.139085,-2.49351 0.463273,-0.43737 1.15015,-1.82389 2.596708,-5.2417 1.66554,-3.93519 2.421492,-5.39071 3.154425,-6.07354 0.335979,-0.31301 0.542574,-0.17637 1.180097,0.78053 0.681558,1.023 1.149472,1.99615 2.54471,5.29237 1.447617,3.41997 2.057817,4.67758 2.493512,5.13908 0.437363,0.46327 1.823889,1.15015 5.241697,2.59671 3.935195,1.66554 5.39071,2.42149 6.07354,3.15442 0.313013,0.33598 0.176368,0.54258 -0.780533,1.1801 -1.022997,0.68156 -1.996144,1.14947 -5.292364,2.54471 -3.510519,1.48595 -4.682754,2.0599 -5.172827,2.53273 -0.474286,0.45759 -1.038079,1.60263 -2.566968,5.21339 -1.391772,3.28693 -1.859906,4.26015 -2.540767,5.2821 -0.637523,0.9569 -0.844118,1.09354 -1.180097,0.78053 z"
     id="path14" />
  <path
     style="opacity:0;fill:none;fill-opacity:1;stroke:#ffffff;stroke-width:0.122807;stroke-opacity:1"
     d="m 32.62706,138.09044 c -0.732254,-0.6822 -1.413559,-1.9942 -3.146658,-6.05957 -1.601734,-3.75723 -2.155268,-4.85324 -2.686812,-5.31994 -0.516774,-0.45373 -1.243783,-0.803 -5.070071,-2.43574 -4.069141,-1.73636 -5.378032,-2.41632 -6.059574,-3.14786 -0.313012,-0.33598 -0.176367,-0.54258 0.780533,-1.1801 1.022998,-0.68156 1.996144,-1.14947 5.292364,-2.54471 3.41997,-1.44762 4.677581,-2.05782 5.139085,-2.49351 0.463273,-0.43737 1.15015,-1.82389 2.596708,-5.2417 1.66554,-3.93519 2.421492,-5.39071 3.154425,-6.07354 0.335979,-0.31301 0.542574,-0.17637 1.180097,0.78053 0.681558,1.023 1.149472,1.99615 2.54471,5.29237 1.447617,3.41997 2.057817,4.67758 2.493512,5.13908 0.437363,0.46327 1.823889,1.15015 5.241697,2.59671 3.935195,1.66554 5.39071,2.42149 6.07354,3.15442 0.313013,0.33598 0.176368,0.54258 -0.780533,1.1801 -1.022997,0.68156 -1.996144,1.14947 -5.292364,2.54471 -3.510519,1.48595 -4.682754,2.0599 -5.172827,2.53273 -0.474286,0.45759 -1.038079,1.60263 -2.566968,5.21339 -1.391772,3.28693 -1.859906,4.26015 -2.540767,5.2821 -0.637523,0.9569 -0.844118,1.09354 -1.180097,0.78053 z"
     id="path15" />
  <path
     style="opacity:0;fill:none;fill-opacity:1;stroke:#ffffff;stroke-width:0.122807;stroke-opacity:1"
     d="m 32.62706,138.09044 c -0.732254,-0.6822 -1.413559,-1.9942 -3.146658,-6.05957 -1.601734,-3.75723 -2.155268,-4.85324 -2.686812,-5.31994 -0.516774,-0.45373 -1.243783,-0.803 -5.070071,-2.43574 -4.069141,-1.73636 -5.378032,-2.41632 -6.059574,-3.14786 -0.313012,-0.33598 -0.176367,-0.54258 0.780533,-1.1801 1.022998,-0.68156 1.996144,-1.14947 5.292364,-2.54471 3.41997,-1.44762 4.677581,-2.05782 5.139085,-2.49351 0.463273,-0.43737 1.15015,-1.82389 2.596708,-5.2417 1.66554,-3.93519 2.421492,-5.39071 3.154425,-6.07354 0.335979,-0.31301 0.542574,-0.17637 1.180097,0.78053 0.681558,1.023 1.149472,1.99615 2.54471,5.29237 1.447617,3.41997 2.057817,4.67758 2.493512,5.13908 0.437363,0.46327 1.823889,1.15015 5.241697,2.59671 3.935195,1.66554 5.39071,2.42149 6.07354,3.15442 0.313013,0.33598 0.176368,0.54258 -0.780533,1.1801 -1.022997,0.68156 -1.996144,1.14947 -5.292364,2.54471 -3.510519,1.48595 -4.682754,2.0599 -5.172827,2.53273 -0.474286,0.45759 -1.038079,1.60263 -2.566968,5.21339 -1.391772,3.28693 -1.859906,4.26015 -2.540767,5.2821 -0.637523,0.9569 -0.844118,1.09354 -1.180097,0.78053 z"
     id="path16" />
  <path
     style="opacity:0;fill:none;fill-opacity:1;stroke:#ffffff;stroke-width:0.122807;stroke-opacity:1"
     d="m 32.62706,138.09044 c -0.732254,-0.6822 -1.413559,-1.9942 -3.146658,-6.05957 -1.601734,-3.75723 -2.155268,-4.85324 -2.686812,-5.31994 -0.516774,-0.45373 -1.243783,-0.803 -5.070071,-2.43574 -4.069141,-1.73636 -5.378032,-2.41632 -6.059574,-3.14786 -0.313012,-0.33598 -0.176367,-0.54258 0.780533,-1.1801 1.022998,-0.68156 1.996144,-1.14947 5.292364,-2.54471 3.41997,-1.44762 4.677581,-2.05782 5.139085,-2.49351 0.463273,-0.43737 1.15015,-1.82389 2.596708,-5.2417 1.66554,-3.93519 2.421492,-5.39071 3.154425,-6.07354 0.335979,-0.31301 0.542574,-0.17637 1.180097,0.78053 0.681558,1.023 1.149472,1.99615 2.54471,5.29237 1.447617,3.41997 2.057817,4.67758 2.493512,5.13908 0.437363,0.46327 1.823889,1.15015 5.241697,2.59671 3.935195,1.66554 5.39071,2.42149 6.07354,3.15442 0.313013,0.33598 0.176368,0.54258 -0.780533,1.1801 -1.022997,0.68156 -1.996144,1.14947 -5.292364,2.54471 -3.510519,1.48595 -4.682754,2.0599 -5.172827,2.53273 -0.474286,0.45759 -1.038079,1.60263 -2.566968,5.21339 -1.391772,3.28693 -1.859906,4.26015 -2.540767,5.2821 -0.637523,0.9569 -0.844118,1.09354 -1.180097,0.78053 z"
     id="path17" />
  <path
     style="opacity:0;fill:none;fill-opacity:1;stroke:#ffffff;stroke-width:0.122807;stroke-opacity:1"
     d="m 32.280619,139.08825 c -0.912719,-0.55655 -1.869997,-2.29257 -3.898924,-7.07071 -0.717024,-1.68859 -1.486627,-3.3982 -1.710227,-3.79912 -0.51262,-0.91914 -0.834085,-1.10453 -4.934626,-2.84573 -4.696564,-1.99429 -6.52237,-2.9996 -7.065474,-3.89033 -0.30317,-0.49722 -0.30317,-0.78329 0,-1.28051 0.543383,-0.89119 2.378245,-1.90181 7.065474,-3.8916 1.688597,-0.71683 3.398204,-1.48607 3.799127,-1.70942 0.918255,-0.51154 1.100878,-0.82816 2.846031,-4.93416 0.717695,-1.6886 1.485884,-3.43009 1.707086,-3.86998 l 0.402186,-0.79979 -0.363266,-0.7967 c -0.496016,-1.08783 -0.925758,-2.61284 -1.027634,-3.64673 -0.26302,-2.669225 1.104764,-5.099408 3.545001,-6.298516 1.759401,-0.864551 2.609549,-1.028043 5.363399,-1.031437 2.149018,-0.0026 2.556499,0.03148 3.971253,0.33263 8.006239,1.704235 15.702003,7.199853 18.808135,13.431063 1.525831,3.06098 1.628621,5.94496 0.286941,8.05076 -1.877639,2.947 -6.683288,4.10367 -12.136504,2.92113 -0.574123,-0.1245 -1.20965,-0.2628 -1.412281,-0.30733 -0.202632,-0.0445 0.257705,0.25138 1.022971,0.65758 1.592498,0.84529 2.413344,1.46982 2.687502,2.04474 0.61729,1.29447 -0.930374,2.38115 -7.14907,5.01965 -1.688596,0.71645 -3.398202,1.48558 -3.799126,1.70918 -0.918697,0.51237 -1.102577,0.83137 -2.844458,4.93462 -1.989786,4.68723 -3.00041,6.52209 -3.891597,7.06548 -0.495254,0.30197 -0.783325,0.30315 -1.271919,0.005 z m 1.215678,-1.09751 c 0.663584,-0.73451 1.421013,-2.23657 3.012404,-5.97392 1.721043,-4.04183 1.869894,-4.34664 2.419866,-4.9554 0.565453,-0.62588 1.059175,-0.87734 5.105956,-2.60052 1.920486,-0.81778 3.955389,-1.73876 4.522006,-2.04663 1.070389,-0.58159 1.978559,-1.30322 1.978559,-1.57216 0,-0.26894 -0.90817,-0.99058 -1.978559,-1.57217 -0.566617,-0.30787 -2.577906,-1.21879 -4.469529,-2.02426 -4.04183,-1.72104 -4.346649,-1.86989 -4.955401,-2.41986 -0.625888,-0.56545 -0.877348,-1.05918 -2.600528,-5.10596 -0.817772,-1.92048 -1.738752,-3.95539 -2.046623,-4.522 -0.581594,-1.07039 -1.303227,-1.97856 -1.572167,-1.97856 -0.26894,0 -0.990574,0.90817 -1.572167,1.97856 -0.307871,0.56661 -1.230057,2.60521 -2.049302,4.53021 -1.558937,3.66308 -1.913004,4.38067 -2.443054,4.95135 -0.504344,0.543 -1.307037,0.94679 -5.052775,2.54179 -1.923206,0.81893 -3.960334,1.74086 -4.526951,2.04873 -1.070388,0.58159 -1.978558,1.30323 -1.978558,1.57217 0,0.26894 0.90817,0.99057 1.978558,1.57216 0.566617,0.30787 2.60152,1.22885 4.522006,2.04663 4.046781,1.72318 4.540504,1.97464 5.105956,2.60052 0.549972,0.60876 0.698824,0.91357 2.419866,4.9554 0.805469,1.89163 1.716383,3.90292 2.024254,4.46953 0.581593,1.07039 1.303227,1.97856 1.572167,1.97856 0.0856,0 0.348403,-0.21337 0.584016,-0.47417 z"
     id="path18" />
  <path
     style="opacity:0;fill:none;fill-opacity:1;stroke:#ffffff;stroke-width:0.122807;stroke-opacity:1"
     d="m 32.62706,138.09044 c -0.732254,-0.6822 -1.413559,-1.9942 -3.146658,-6.05957 -1.601734,-3.75723 -2.155268,-4.85324 -2.686812,-5.31994 -0.516774,-0.45373 -1.243783,-0.803 -5.070071,-2.43574 -4.069141,-1.73636 -5.378032,-2.41632 -6.059574,-3.14786 -0.313012,-0.33598 -0.176367,-0.54258 0.780533,-1.1801 1.022998,-0.68156 1.996144,-1.14947 5.292364,-2.54471 3.41997,-1.44762 4.677581,-2.05782 5.139085,-2.49351 0.463273,-0.43737 1.15015,-1.82389 2.596708,-5.2417 1.66554,-3.93519 2.421492,-5.39071 3.154425,-6.07354 0.335979,-0.31301 0.542574,-0.17637 1.180097,0.78053 0.681558,1.023 1.149472,1.99615 2.54471,5.29237 1.447617,3.41997 2.057817,4.67758 2.493512,5.13908 0.437363,0.46327 1.823889,1.15015 5.241697,2.59671 3.935195,1.66554 5.39071,2.42149 6.07354,3.15442 0.313013,0.33598 0.176368,0.54258 -0.780533,1.1801 -1.022997,0.68156 -1.996144,1.14947 -5.292364,2.54471 -3.510519,1.48595 -4.682754,2.0599 -5.172827,2.53273 -0.474286,0.45759 -1.038079,1.60263 -2.566968,5.21339 -1.391772,3.28693 -1.859906,4.26015 -2.540767,5.2821 -0.637523,0.9569 -0.844118,1.09354 -1.180097,0.78053 z"
     id="path19" />
  <path
     style="opacity:0;fill:none;fill-opacity:1;stroke:#ffffff;stroke-width:0.122807;stroke-opacity:1"
     d="m 32.62706,138.09044 c -0.732254,-0.6822 -1.413559,-1.9942 -3.146658,-6.05957 -1.601734,-3.75723 -2.155268,-4.85324 -2.686812,-5.31994 -0.516774,-0.45373 -1.243783,-0.803 -5.070071,-2.43574 -4.069141,-1.73636 -5.378032,-2.41632 -6.059574,-3.14786 -0.313012,-0.33598 -0.176367,-0.54258 0.780533,-1.1801 1.022998,-0.68156 1.996144,-1.14947 5.292364,-2.54471 3.41997,-1.44762 4.677581,-2.05782 5.139085,-2.49351 0.463273,-0.43737 1.15015,-1.82389 2.596708,-5.2417 1.66554,-3.93519 2.421492,-5.39071 3.154425,-6.07354 0.335979,-0.31301 0.542574,-0.17637 1.180097,0.78053 0.681558,1.023 1.149472,1.99615 2.54471,5.29237 1.447617,3.41997 2.057817,4.67758 2.493512,5.13908 0.437363,0.46327 1.823889,1.15015 5.241697,2.59671 3.935195,1.66554 5.39071,2.42149 6.07354,3.15442 0.313013,0.33598 0.176368,0.54258 -0.780533,1.1801 -1.022997,0.68156 -1.996144,1.14947 -5.292364,2.54471 -3.510519,1.48595 -4.682754,2.0599 -5.172827,2.53273 -0.474286,0.45759 -1.038079,1.60263 -2.566968,5.21339 -1.391772,3.28693 -1.859906,4.26015 -2.540767,5.2821 -0.637523,0.9569 -0.844118,1.09354 -1.180097,0.78053 z"
     id="path20" />
  <path
     style="opacity:0;fill:none;fill-opacity:1;stroke:#ffffff;stroke-width:0.122807;stroke-opacity:1"
     d="m 32.62706,138.09044 c -0.732254,-0.6822 -1.413559,-1.9942 -3.146658,-6.05957 -1.601734,-3.75723 -2.155268,-4.85324 -2.686812,-5.31994 -0.516774,-0.45373 -1.243783,-0.803 -5.070071,-2.43574 -4.069141,-1.73636 -5.378032,-2.41632 -6.059574,-3.14786 -0.313012,-0.33598 -0.176367,-0.54258 0.780533,-1.1801 1.022998,-0.68156 1.996144,-1.14947 5.292364,-2.54471 3.41997,-1.44762 4.677581,-2.05782 5.139085,-2.49351 0.463273,-0.43737 1.15015,-1.82389 2.596708,-5.2417 1.66554,-3.93519 2.421492,-5.39071 3.154425,-6.07354 0.335979,-0.31301 0.542574,-0.17637 1.180097,0.78053 0.681558,1.023 1.149472,1.99615 2.54471,5.29237 1.447617,3.41997 2.057817,4.67758 2.493512,5.13908 0.437363,0.46327 1.823889,1.15015 5.241697,2.59671 3.935195,1.66554 5.39071,2.42149 6.07354,3.15442 0.313013,0.33598 0.176368,0.54258 -0.780533,1.1801 -1.022997,0.68156 -1.996144,1.14947 -5.292364,2.54471 -3.510519,1.48595 -4.682754,2.0599 -5.172827,2.53273 -0.474286,0.45759 -1.038079,1.60263 -2.566968,5.21339 -1.391772,3.28693 -1.859906,4.26015 -2.540767,5.2821 -0.637523,0.9569 -0.844118,1.09354 -1.180097,0.78053 z"
     id="path21" />
</svg>
