<?xml version="1.0" encoding="UTF-8" standalone="no"?>
<svg
   width="103"
   height="210"
   viewBox="0 0 103 210"
   fill="none"
   version="1.1"
   id="svg2"
   sodipodi:docname="company-icon.svg"
   inkscape:version="1.4 (86a8ad7, 2024-10-11)"
   xmlns:inkscape="http://www.inkscape.org/namespaces/inkscape"
   xmlns:sodipodi="http://sodipodi.sourceforge.net/DTD/sodipodi-0.dtd"
   xmlns="http://www.w3.org/2000/svg"
   xmlns:svg="http://www.w3.org/2000/svg">
  <defs
     id="defs2" />
  <sodipodi:namedview
     id="namedview2"
     pagecolor="#ffffff"
     bordercolor="#000000"
     borderopacity="0.25"
     inkscape:showpageshadow="2"
     inkscape:pageopacity="0.0"
     inkscape:pagecheckerboard="true"
     inkscape:deskcolor="#d1d1d1"
     inkscape:zoom="2.0357143"
     inkscape:cx="6.3859649"
     inkscape:cy="131.89474"
     inkscape:window-width="1920"
     inkscape:window-height="1057"
     inkscape:window-x="1912"
     inkscape:window-y="-8"
     inkscape:window-maximized="1"
     inkscape:current-layer="svg2" />
  <path
     id="rect3"
     style="fill:#000000;stroke-width:1.76429"
     d="m 79.116129,21.464401 a 33.599999,19.452631 30 0 0 -15.138282,6.633984 l -0.04219,-0.02461 -0.221485,0.383202 -53.296874,92.309762 0.01406,0.007 a 33.599999,19.452631 30 0 1 38.612111,0.23555 33.599999,19.452631 30 0 1 19.536326,33.33516 l 0.03515,0.0211 53.296875,-92.309766 0.22149,-0.3832 -0.0141,-0.007 A 33.599999,19.452631 30 0 0 102.53722,28.40776 33.599999,19.452631 30 0 0 79.116129,21.464401 Z" />
  <path
     id="path3-0-9"
     style="fill:#000000;stroke:none;stroke-width:1.539;stroke-opacity:1"
     d="m 27.383706,118.0562 a 28.728,16.632 30 0 0 -13.16953,5.97656 28.728,16.632 30 0 0 3.673828,17.71523 c 0.07441,-0.061 0.18094,-0.1282 0.239062,-0.18633 2.537314,-2.53731 7.890211,-20.98828 11.478515,-20.98828 3.588306,0 8.941202,18.45097 11.478517,20.98828 2.537315,2.53732 20.988282,7.89021 20.988279,11.47852 7e-6,1.61117 -3.757102,3.57273 -8.08594,5.48085 a 28.728,16.632 30 0 0 9.987895,-5.75858 28.728,16.632 30 0 0 -16.562108,-28.76836 28.728,16.632 30 0 0 -20.028518,-5.93789 z" />
  <path
     sodipodi:type="star"
     style="fill:#ffffff;fill-opacity:0;stroke:#000000;stroke-width:2;stroke-dasharray:none;stroke-opacity:1"
     id="path2-8"
     inkscape:flatsided="false"
     sodipodi:sides="4"
     sodipodi:cx="41.017544"
     sodipodi:cy="30.947369"
     sodipodi:r1="18.03717"
     sodipodi:r2="9.0185852"
     sodipodi:arg1="1.5707963"
     sodipodi:arg2="2.3561945"
     inkscape:rounded="0.15"
     inkscape:randomized="0"
     d="m 41.017544,48.984539 c -1.993503,0 -4.967484,-10.250448 -6.377103,-11.660068 -1.409619,-1.409619 -11.660068,-4.383599 -11.660068,-6.377102 0,-1.993503 10.250449,-4.967484 11.660068,-6.377103 1.409619,-1.40962 4.383599,-11.660068 6.377102,-11.660068 1.993503,0 4.967484,10.250449 6.377104,11.660068 1.409619,1.409619 11.660067,4.383599 11.660067,6.377102 0,1.993503 -10.250448,4.967484 -11.660068,6.377103 -1.409619,1.40962 -4.383599,11.660068 -6.377102,11.660068 z"
     transform="matrix(1.8,0,0,1.8,-44.969589,97.553616)" />
  <path
     style="opacity:0;fill:none;fill-opacity:1;stroke:#ffffff;stroke-width:0.312615;stroke-opacity:1"
     d="m 15.226815,194.94162 c -1.240055,-1.87386 -2.806643,-5.12586 -5.077266,-10.53967 -3.0018706,-7.15732 -3.710689,-8.39556 -5.4291076,-9.48407 -0.7948206,-0.50346 -4.46968439,-2.20731 -8.1663642,-3.7863 -3.6966798,-1.579 -7.2136042,-3.15942 -7.8153892,-3.51206 -2.283385,-1.33803 -3.438772,-2.21571 -3.438772,-2.61219 0,-1.02022 3.840256,-3.08234 12.774398,-6.85951 3.1573026,-1.33485 6.322536,-2.86969 7.0338528,-3.41079 1.444284,-1.09865 2.3915178,-2.80391 4.7432718,-8.53907 C 12.144304,140.6064 14.532144,135.77 15.600365,134.55392 l 0.961114,-1.09417 0.915184,1.05522 c 1.316193,1.51754 2.411306,3.70996 5.636466,11.28414 1.571982,3.69175 3.207559,7.17036 3.634616,7.73027 1.052588,1.38 2.504315,2.17893 8.72401,4.80103 8.494178,3.58099 12.351287,5.66987 12.351287,6.68903 0,0.83346 -3.717717,2.86306 -10.993589,6.00169 -4.069177,1.75534 -7.958079,3.56184 -8.641999,4.01445 -1.48958,0.98575 -2.339338,2.51222 -5.214048,9.36637 -3.364331,8.02152 -5.394186,11.73724 -6.411927,11.73724 -0.298183,0 -0.89878,-0.5389 -1.334664,-1.19757 z"
     id="path12" />
  <path
     style="opacity:0;fill:none;fill-opacity:1;stroke:#ffffff;stroke-width:0.221053;stroke-opacity:1"
     d="m 16.049524,196.01625 c -1.318057,-1.22796 -2.544406,-3.58956 -5.663984,-10.90722 -2.8831212,-6.76302 -3.8794824,-8.73584 -4.8362616,-9.5759 -0.9301932,-0.81671 -2.2388094,-1.4454 -9.1261278,-4.38433 -7.3244536,-3.12545 -9.6804576,-4.34937 -10.9072336,-5.66615 -0.563421,-0.60476 -0.31746,-0.97664 1.40496,-2.12418 1.841396,-1.2268 3.593059,-2.06904 9.526255,-4.58047 6.155946,-2.60572 8.4196458,-3.70408 9.250353,-4.48832 0.8338914,-0.78727 2.07027,-3.283 4.674074,-9.43506 2.997972,-7.08334 4.358686,-9.70328 5.677965,-10.93237 0.604763,-0.56342 0.976634,-0.31747 2.124175,1.40495 1.226804,1.8414 2.06905,3.59307 4.580478,9.52627 2.605711,6.15594 3.704071,8.41964 4.488322,9.25034 0.787253,0.83389 3.283,2.07027 9.435054,4.67408 7.083351,2.99797 9.703278,4.35868 10.932372,5.67795 0.563424,0.60477 0.317463,0.97665 -1.404959,2.12418 -1.841395,1.22681 -3.593059,2.06905 -9.526255,4.58048 -6.318935,2.67471 -8.428958,3.70782 -9.311089,4.55892 -0.853715,0.82366 -1.868542,2.88473 -4.620542,9.3841 -2.50519,5.91647 -3.347831,7.66827 -4.573381,9.50778 -1.147541,1.72242 -1.519412,1.96837 -2.124175,1.40495 z"
     id="path13" />
  <path
     style="opacity:0;fill:none;fill-opacity:1;stroke:#ffffff;stroke-width:0.221053;stroke-opacity:1"
     d="m 16.049524,196.01625 c -1.318057,-1.22796 -2.544406,-3.58956 -5.663984,-10.90722 -2.8831212,-6.76302 -3.8794824,-8.73584 -4.8362616,-9.5759 -0.9301932,-0.81671 -2.2388094,-1.4454 -9.1261278,-4.38433 -7.3244536,-3.12545 -9.6804576,-4.34937 -10.9072336,-5.66615 -0.563421,-0.60476 -0.31746,-0.97664 1.40496,-2.12418 1.841396,-1.2268 3.593059,-2.06904 9.526255,-4.58047 6.155946,-2.60572 8.4196458,-3.70408 9.250353,-4.48832 0.8338914,-0.78727 2.07027,-3.283 4.674074,-9.43506 2.997972,-7.08334 4.358686,-9.70328 5.677965,-10.93237 0.604763,-0.56342 0.976634,-0.31747 2.124175,1.40495 1.226804,1.8414 2.06905,3.59307 4.580478,9.52627 2.605711,6.15594 3.704071,8.41964 4.488322,9.25034 0.787253,0.83389 3.283,2.07027 9.435054,4.67408 7.083351,2.99797 9.703278,4.35868 10.932372,5.67795 0.563424,0.60477 0.317463,0.97665 -1.404959,2.12418 -1.841395,1.22681 -3.593059,2.06905 -9.526255,4.58048 -6.318935,2.67471 -8.428958,3.70782 -9.311089,4.55892 -0.853715,0.82366 -1.868542,2.88473 -4.620542,9.3841 -2.50519,5.91647 -3.347831,7.66827 -4.573381,9.50778 -1.147541,1.72242 -1.519412,1.96837 -2.124175,1.40495 z"
     id="path14" />
  <path
     style="opacity:0;fill:none;fill-opacity:1;stroke:#ffffff;stroke-width:0.221053;stroke-opacity:1"
     d="m 16.049524,196.01625 c -1.318057,-1.22796 -2.544406,-3.58956 -5.663984,-10.90722 -2.8831212,-6.76302 -3.8794824,-8.73584 -4.8362616,-9.5759 -0.9301932,-0.81671 -2.2388094,-1.4454 -9.1261278,-4.38433 -7.3244536,-3.12545 -9.6804576,-4.34937 -10.9072336,-5.66615 -0.563421,-0.60476 -0.31746,-0.97664 1.40496,-2.12418 1.841396,-1.2268 3.593059,-2.06904 9.526255,-4.58047 6.155946,-2.60572 8.4196458,-3.70408 9.250353,-4.48832 0.8338914,-0.78727 2.07027,-3.283 4.674074,-9.43506 2.997972,-7.08334 4.358686,-9.70328 5.677965,-10.93237 0.604763,-0.56342 0.976634,-0.31747 2.124175,1.40495 1.226804,1.8414 2.06905,3.59307 4.580478,9.52627 2.605711,6.15594 3.704071,8.41964 4.488322,9.25034 0.787253,0.83389 3.283,2.07027 9.435054,4.67408 7.083351,2.99797 9.703278,4.35868 10.932372,5.67795 0.563424,0.60477 0.317463,0.97665 -1.404959,2.12418 -1.841395,1.22681 -3.593059,2.06905 -9.526255,4.58048 -6.318935,2.67471 -8.428958,3.70782 -9.311089,4.55892 -0.853715,0.82366 -1.868542,2.88473 -4.620542,9.3841 -2.50519,5.91647 -3.347831,7.66827 -4.573381,9.50778 -1.147541,1.72242 -1.519412,1.96837 -2.124175,1.40495 z"
     id="path15" />
  <path
     style="opacity:0;fill:none;fill-opacity:1;stroke:#ffffff;stroke-width:0.221053;stroke-opacity:1"
     d="m 16.049524,196.01625 c -1.318057,-1.22796 -2.544406,-3.58956 -5.663984,-10.90722 -2.8831212,-6.76302 -3.8794824,-8.73584 -4.8362616,-9.5759 -0.9301932,-0.81671 -2.2388094,-1.4454 -9.1261278,-4.38433 -7.3244536,-3.12545 -9.6804576,-4.34937 -10.9072336,-5.66615 -0.563421,-0.60476 -0.31746,-0.97664 1.40496,-2.12418 1.841396,-1.2268 3.593059,-2.06904 9.526255,-4.58047 6.155946,-2.60572 8.4196458,-3.70408 9.250353,-4.48832 0.8338914,-0.78727 2.07027,-3.283 4.674074,-9.43506 2.997972,-7.08334 4.358686,-9.70328 5.677965,-10.93237 0.604763,-0.56342 0.976634,-0.31747 2.124175,1.40495 1.226804,1.8414 2.06905,3.59307 4.580478,9.52627 2.605711,6.15594 3.704071,8.41964 4.488322,9.25034 0.787253,0.83389 3.283,2.07027 9.435054,4.67408 7.083351,2.99797 9.703278,4.35868 10.932372,5.67795 0.563424,0.60477 0.317463,0.97665 -1.404959,2.12418 -1.841395,1.22681 -3.593059,2.06905 -9.526255,4.58048 -6.318935,2.67471 -8.428958,3.70782 -9.311089,4.55892 -0.853715,0.82366 -1.868542,2.88473 -4.620542,9.3841 -2.50519,5.91647 -3.347831,7.66827 -4.573381,9.50778 -1.147541,1.72242 -1.519412,1.96837 -2.124175,1.40495 z"
     id="path16" />
  <path
     style="opacity:0;fill:none;fill-opacity:1;stroke:#ffffff;stroke-width:0.221053;stroke-opacity:1"
     d="m 16.049524,196.01625 c -1.318057,-1.22796 -2.544406,-3.58956 -5.663984,-10.90722 -2.8831212,-6.76302 -3.8794824,-8.73584 -4.8362616,-9.5759 -0.9301932,-0.81671 -2.2388094,-1.4454 -9.1261278,-4.38433 -7.3244536,-3.12545 -9.6804576,-4.34937 -10.9072336,-5.66615 -0.563421,-0.60476 -0.31746,-0.97664 1.40496,-2.12418 1.841396,-1.2268 3.593059,-2.06904 9.526255,-4.58047 6.155946,-2.60572 8.4196458,-3.70408 9.250353,-4.48832 0.8338914,-0.78727 2.07027,-3.283 4.674074,-9.43506 2.997972,-7.08334 4.358686,-9.70328 5.677965,-10.93237 0.604763,-0.56342 0.976634,-0.31747 2.124175,1.40495 1.226804,1.8414 2.06905,3.59307 4.580478,9.52627 2.605711,6.15594 3.704071,8.41964 4.488322,9.25034 0.787253,0.83389 3.283,2.07027 9.435054,4.67408 7.083351,2.99797 9.703278,4.35868 10.932372,5.67795 0.563424,0.60477 0.317463,0.97665 -1.404959,2.12418 -1.841395,1.22681 -3.593059,2.06905 -9.526255,4.58048 -6.318935,2.67471 -8.428958,3.70782 -9.311089,4.55892 -0.853715,0.82366 -1.868542,2.88473 -4.620542,9.3841 -2.50519,5.91647 -3.347831,7.66827 -4.573381,9.50778 -1.147541,1.72242 -1.519412,1.96837 -2.124175,1.40495 z"
     id="path17" />
  <path
     style="opacity:0;fill:none;fill-opacity:1;stroke:#ffffff;stroke-width:0.221053;stroke-opacity:1"
     d="m 15.425931,197.81231 c -1.642895,-1.00179 -3.365995,-4.12663 -7.0180636,-12.72728 -1.2906432,-3.03946 -2.6759286,-6.11676 -3.0784086,-6.83841 -0.922716,-1.65446 -1.501353,-1.98816 -8.8823268,-5.12232 -8.453815,-3.58972 -11.740266,-5.39928 -12.717853,-7.00259 -0.545706,-0.895 -0.545706,-1.40992 0,-2.30492 0.978089,-1.60414 4.280841,-3.42326 12.717853,-7.00488 3.03947461,-1.29029 6.1167672,-2.67493 6.8384286,-3.07696 1.652859,-0.92077 1.9815804,-1.49068 5.1228558,-8.88148 1.291851,-3.03948 2.6745916,-6.17417 3.0727546,-6.96597 l 0.723935,-1.43962 -0.653879,-1.43406 c -0.892829,-1.95809 -1.6663642,-4.70311 -1.849741,-6.56411 -0.473436,-4.80461 1.988575,-9.17894 6.381002,-11.33733 3.166922,-1.55619 4.697188,-1.85048 9.654118,-1.85659 3.868232,-0.005 4.601698,0.0567 7.148255,0.59874 14.411231,3.06762 28.263606,12.95973 33.854643,24.17591 2.746496,5.50976 2.931518,10.70093 0.516494,14.49137 -3.37975,5.3046 -12.029918,7.3866 -21.845707,5.25803 -1.033421,-0.2241 -2.17737,-0.47304 -2.542106,-0.55319 -0.364737,-0.0801 0.463869,0.45248 1.841348,1.18364 2.866496,1.52152 4.344019,2.64568 4.837504,3.68053 1.111122,2.33005 -1.674674,4.28607 -12.868326,9.03537 -3.039473,1.28961 -6.116764,2.67405 -6.838427,3.07653 -1.653655,0.92226 -1.984639,1.49646 -5.120025,8.88231 -3.581614,8.43702 -5.400738,11.73976 -7.004874,12.71787 -0.891457,0.54354 -1.409985,0.54567 -2.289454,0.009 z m 2.18822,-1.97552 c 1.194451,-1.32212 2.557823,-4.02582 5.422327,-10.75305 3.097878,-7.2753 3.365809,-7.82396 4.355759,-8.91972 1.017815,-1.12659 1.906515,-1.57922 9.190721,-4.68094 3.456875,-1.472 7.1197,-3.12977 8.139611,-3.68393 1.9267,-1.04687 3.561406,-2.3458 3.561406,-2.82989 0,-0.48409 -1.634706,-1.78305 -3.561406,-2.82991 -1.019911,-0.55416 -4.640231,-2.19382 -8.045153,-3.64367 -7.275294,-3.09787 -7.823968,-3.3658 -8.919721,-4.35574 -1.126599,-1.01781 -1.579227,-1.90653 -4.680951,-9.19073 -1.471989,-3.45687 -3.129753,-7.1197 -3.683921,-8.1396 -1.046869,-1.9267 -2.345809,-3.56141 -2.829901,-3.56141 -0.484092,0 -1.783033,1.63471 -2.8299,3.56141 -0.554168,1.0199 -2.214103,4.68938 -3.688744,8.15438 -2.8060866,6.59354 -3.4434072,7.8852 -4.3974972,8.91243 -0.9078192,0.9774 -2.3526666,1.70422 -9.094995,4.57522 -3.4617708,1.47407 -7.1286008,3.13355 -8.1485118,3.68771 -1.926698,1.04686 -3.561404,2.34582 -3.561404,2.82991 0,0.48409 1.634706,1.78302 3.561404,2.82989 1.019911,0.55416 4.682736,2.21193 8.1396108,3.68393 7.2842058,3.10172 8.1729072,3.55435 9.1907208,4.68094 0.9899496,1.09576 1.2578832,1.64442 4.3557584,8.91972 1.449845,3.40493 3.08949,7.02525 3.643658,8.04515 1.046867,1.9267 2.345808,3.56141 2.8299,3.56141 0.15408,0 0.627126,-0.38407 1.051229,-0.85351 z"
     id="path18" />
  <path
     style="opacity:0;fill:none;fill-opacity:1;stroke:#ffffff;stroke-width:0.221053;stroke-opacity:1"
     d="m 16.049524,196.01625 c -1.318057,-1.22796 -2.544406,-3.58956 -5.663984,-10.90722 -2.8831212,-6.76302 -3.8794824,-8.73584 -4.8362616,-9.5759 -0.9301932,-0.81671 -2.2388094,-1.4454 -9.1261278,-4.38433 -7.3244536,-3.12545 -9.6804576,-4.34937 -10.9072336,-5.66615 -0.563421,-0.60476 -0.31746,-0.97664 1.40496,-2.12418 1.841396,-1.2268 3.593059,-2.06904 9.526255,-4.58047 6.155946,-2.60572 8.4196458,-3.70408 9.250353,-4.48832 0.8338914,-0.78727 2.07027,-3.283 4.674074,-9.43506 2.997972,-7.08334 4.358686,-9.70328 5.677965,-10.93237 0.604763,-0.56342 0.976634,-0.31747 2.124175,1.40495 1.226804,1.8414 2.06905,3.59307 4.580478,9.52627 2.605711,6.15594 3.704071,8.41964 4.488322,9.25034 0.787253,0.83389 3.283,2.07027 9.435054,4.67408 7.083351,2.99797 9.703278,4.35868 10.932372,5.67795 0.563424,0.60477 0.317463,0.97665 -1.404959,2.12418 -1.841395,1.22681 -3.593059,2.06905 -9.526255,4.58048 -6.318935,2.67471 -8.428958,3.70782 -9.311089,4.55892 -0.853715,0.82366 -1.868542,2.88473 -4.620542,9.3841 -2.50519,5.91647 -3.347831,7.66827 -4.573381,9.50778 -1.147541,1.72242 -1.519412,1.96837 -2.124175,1.40495 z"
     id="path19" />
  <path
     style="opacity:0;fill:none;fill-opacity:1;stroke:#ffffff;stroke-width:0.221053;stroke-opacity:1"
     d="m 16.049524,196.01625 c -1.318057,-1.22796 -2.544406,-3.58956 -5.663984,-10.90722 -2.8831212,-6.76302 -3.8794824,-8.73584 -4.8362616,-9.5759 -0.9301932,-0.81671 -2.2388094,-1.4454 -9.1261278,-4.38433 -7.3244536,-3.12545 -9.6804576,-4.34937 -10.9072336,-5.66615 -0.563421,-0.60476 -0.31746,-0.97664 1.40496,-2.12418 1.841396,-1.2268 3.593059,-2.06904 9.526255,-4.58047 6.155946,-2.60572 8.4196458,-3.70408 9.250353,-4.48832 0.8338914,-0.78727 2.07027,-3.283 4.674074,-9.43506 2.997972,-7.08334 4.358686,-9.70328 5.677965,-10.93237 0.604763,-0.56342 0.976634,-0.31747 2.124175,1.40495 1.226804,1.8414 2.06905,3.59307 4.580478,9.52627 2.605711,6.15594 3.704071,8.41964 4.488322,9.25034 0.787253,0.83389 3.283,2.07027 9.435054,4.67408 7.083351,2.99797 9.703278,4.35868 10.932372,5.67795 0.563424,0.60477 0.317463,0.97665 -1.404959,2.12418 -1.841395,1.22681 -3.593059,2.06905 -9.526255,4.58048 -6.318935,2.67471 -8.428958,3.70782 -9.311089,4.55892 -0.853715,0.82366 -1.868542,2.88473 -4.620542,9.3841 -2.50519,5.91647 -3.347831,7.66827 -4.573381,9.50778 -1.147541,1.72242 -1.519412,1.96837 -2.124175,1.40495 z"
     id="path20" />
  <path
     style="opacity:0;fill:none;fill-opacity:1;stroke:#ffffff;stroke-width:0.221053;stroke-opacity:1"
     d="m 16.049524,196.01625 c -1.318057,-1.22796 -2.544406,-3.58956 -5.663984,-10.90722 -2.8831212,-6.76302 -3.8794824,-8.73584 -4.8362616,-9.5759 -0.9301932,-0.81671 -2.2388094,-1.4454 -9.1261278,-4.38433 -7.3244536,-3.12545 -9.6804576,-4.34937 -10.9072336,-5.66615 -0.563421,-0.60476 -0.31746,-0.97664 1.40496,-2.12418 1.841396,-1.2268 3.593059,-2.06904 9.526255,-4.58047 6.155946,-2.60572 8.4196458,-3.70408 9.250353,-4.48832 0.8338914,-0.78727 2.07027,-3.283 4.674074,-9.43506 2.997972,-7.08334 4.358686,-9.70328 5.677965,-10.93237 0.604763,-0.56342 0.976634,-0.31747 2.124175,1.40495 1.226804,1.8414 2.06905,3.59307 4.580478,9.52627 2.605711,6.15594 3.704071,8.41964 4.488322,9.25034 0.787253,0.83389 3.283,2.07027 9.435054,4.67408 7.083351,2.99797 9.703278,4.35868 10.932372,5.67795 0.563424,0.60477 0.317463,0.97665 -1.404959,2.12418 -1.841395,1.22681 -3.593059,2.06905 -9.526255,4.58048 -6.318935,2.67471 -8.428958,3.70782 -9.311089,4.55892 -0.853715,0.82366 -1.868542,2.88473 -4.620542,9.3841 -2.50519,5.91647 -3.347831,7.66827 -4.573381,9.50778 -1.147541,1.72242 -1.519412,1.96837 -2.124175,1.40495 z"
     id="path21" />
</svg>
